<svg width="500" height="500" viewBox="0 0 500 500" fill="none" xmlns="http://www.w3.org/2000/svg">
  <path d="M483.64 265.097c-1.08-24.477-23-179.475-232.5-185-158.027-4.168-186 127.999-200 139.499s-39.5 45.501-34.5 86c7.716 62.501 109.343 106.836 234.5 113.001 196 9.653 237-51.5 232.5-153.5" fill="#fff"/>
  <path d="M483.64 265.097c-1.08-24.477-23-179.475-232.5-185-158.027-4.168-186 127.999-200 139.499s-39.5 45.501-34.5 86c7.716 62.501 109.343 106.836 234.5 113.001 196 9.653 237-51.5 232.5-153.5Z" stroke="#000" stroke-width="16"/>
  <circle cx="153.14" cy="218.097" r="16" fill="#000"/>
  <circle cx="286.14" cy="228.097" r="16" fill="#000"/>
  <path d="M219.07 269.865c-19-.614-49.779-17.89-53.5-2.499s10.389 34.931 53.5 35.499 49.269-28.499 45-37.499-26 5.112-45 4.499" fill="#ff4d4d"/>
  <rect x="204.07" y="286.866" width="40" height="14" rx="2" fill="#fff"/>
  <rect x="208.07" y="268.866" width="30" height="14" rx="2" fill="#fff"/>
  <path d="M219.07 269.865c-19-.614-49.779-17.89-53.5-2.499s10.389 34.931 53.5 35.499 49.269-28.499 45-37.499-26 5.112-45 4.499Z" stroke="#000" stroke-width="12"/>
  <ellipse cx="330.664" cy="261.58" rx="42.382" ry="17.5" transform="rotate(4.097 330.664 261.58)" fill="#ffc5d5"/>
  <ellipse cx="102.664" cy="239.58" rx="42.382" ry="17.5" transform="rotate(4.097 102.664 239.58)" fill="#ffc5d5"/>
</svg>
